<svg width="45" height="42" viewBox="0 0 45 42" fill="none" xmlns="http://www.w3.org/2000/svg">
<g clip-path="url(#clip0_14179_2644)">
<path d="M16.1851 21.7686C12.7464 21.7686 9.96842 24.3568 10.0192 27.5288C10.0531 29.5646 11.2558 31.3321 13.0259 32.3184C12.4246 31.4583 12.0689 30.4404 12.0519 29.3436C12.0011 26.1716 14.7791 23.5835 18.2178 23.5835C18.8953 23.5835 19.5475 23.6861 20.1573 23.8676V17.5156C19.5221 17.4288 18.8699 17.3815 18.2178 17.3815C18.1839 17.3815 18.1585 17.3815 18.1246 17.3815V22.0527C17.5148 21.8712 16.8626 21.7686 16.1851 21.7686Z" fill="#FF004F"/>
<path d="M31.0478 2.7207H30.997H29.2354C29.7435 5.09578 31.1749 7.16311 33.1737 8.56764C31.8609 6.95007 31.0648 4.93007 31.0478 2.7207Z" fill="#FF004F"/>
<path d="M41.416 12.3866C40.7469 12.3866 40.1033 12.3235 39.468 12.213V16.7659C37.1643 16.7659 34.9284 16.3477 32.8279 15.5113C31.4728 14.9747 30.2108 14.2882 29.0505 13.4597L29.0844 27.4971C29.0674 30.6534 27.7293 33.6123 25.307 35.8454C23.3336 37.6602 20.8351 38.8201 18.1248 39.191C17.4896 39.2778 16.8374 39.3251 16.1853 39.3251C13.2887 39.3251 10.5276 38.4493 8.2832 36.8317C8.53729 37.1158 8.80831 37.3919 9.10475 37.6602C11.544 39.9011 14.7793 41.14 18.2264 41.14C18.8786 41.14 19.5307 41.0926 20.166 41.0058C22.8762 40.635 25.3747 39.4751 27.3481 37.6602C29.7704 35.4272 31.1086 32.4682 31.1255 29.312L30.9985 15.2746C32.1504 16.1031 33.4123 16.7975 34.7759 17.3261C36.8848 18.1546 39.1208 18.5807 41.416 18.5807" fill="#FF004F"/>
<path d="M9.07836 20.8772C11.4922 18.6441 14.7021 17.4053 18.1238 17.3816V15.7009C17.4886 15.6141 16.8365 15.5668 16.1843 15.5668C12.7287 15.5668 9.4849 16.8056 7.04567 19.0623C4.64879 21.2796 3.27673 24.3096 3.2852 27.4579C3.2852 30.6299 4.63185 33.6047 7.06261 35.8535C7.45221 36.2086 7.85027 36.54 8.27375 36.8398C6.35964 34.7173 5.31788 32.066 5.30941 29.2728C5.31788 26.1244 6.68148 23.0944 9.07836 20.8772Z" fill="#00F2EA"/>
<path d="M39.467 12.2133V10.5247H39.4501C37.0955 10.5247 34.9273 9.7988 33.1826 8.56787C34.6987 10.4301 36.9177 11.7557 39.467 12.2133Z" fill="#00F2EA"/>
<path d="M17.87 34.9303C18.6746 34.9697 19.4453 34.8672 20.1567 34.6541C22.6129 33.9045 24.383 31.7741 24.383 29.2648L24.3915 19.875V2.72085H29.2361C29.109 2.12905 29.0413 1.52936 29.0328 0.906006H22.3588V18.0523L22.3503 27.4421C22.3503 29.9513 20.5802 32.0818 18.124 32.8314C17.4126 33.0523 16.6419 33.1549 15.8373 33.1076C14.8125 33.0523 13.8554 32.7683 13.0254 32.3106C14.0671 33.8098 15.8457 34.8277 17.87 34.9303Z" fill="#00F2EA"/>
<path d="M18.1243 39.1913C20.8346 38.8205 23.3331 37.6606 25.3065 35.8457C27.7288 33.6127 29.067 30.6537 29.0839 27.4975L29.05 13.4601C30.2019 14.2886 31.4639 14.983 32.8274 15.5116C34.9364 16.3401 37.1723 16.7662 39.4676 16.7662V12.2133C36.9182 11.7557 34.6992 10.4301 33.1832 8.56789C31.1844 7.16336 29.7445 5.09602 29.2448 2.72095H24.3918V19.8672L24.3833 29.2571C24.3833 31.7663 22.6132 33.8967 20.157 34.6463C19.4456 34.8673 18.6749 34.9699 17.8702 34.9225C15.8376 34.8199 14.0674 33.802 13.0257 32.3107C11.2555 31.3323 10.0529 29.5569 10.019 27.5211C9.96817 24.3491 12.7462 21.761 16.1848 21.761C16.8624 21.761 17.5145 21.8636 18.1243 22.045V17.3738C14.7026 17.3975 11.4927 18.6363 9.07887 20.8693C6.68199 23.0866 5.30993 26.1166 5.3184 29.2571C5.3184 32.0503 6.36015 34.7016 8.28274 36.8242C10.5356 38.4417 13.2882 39.3176 16.1848 39.3176C16.837 39.3255 17.4891 39.2781 18.1243 39.1913Z" fill="black"/>
</g>
<defs>
<clipPath id="clip0_14179_2644">
<rect width="43.364" height="40.3999" fill="white" transform="translate(0.760742 0.827148)"/>
</clipPath>
</defs>
</svg>
